<svg width="1440" height="416" viewBox="0 0 1440 416" fill="none" xmlns="http://www.w3.org/2000/svg">
<g style="mix-blend-mode:plus-lighter">
<path fill-rule="evenodd" clip-rule="evenodd" d="M103.082 140.807C101.837 159.914 101.939 186.673 103.512 217.469C103.552 218.253 103.129 218.987 102.432 219.347C101.734 219.706 100.89 219.624 100.275 219.136C76.118 199.971 54.3927 184.35 38.1147 174.267C29.9628 169.218 23.2489 165.603 18.3141 163.618C15.8334 162.62 13.9176 162.081 12.5529 161.934C11.3056 161.8 10.9375 162.029 10.8844 162.067C10.8565 162.125 10.6915 162.526 11.0294 163.734C11.3993 165.055 12.2466 166.856 13.6405 169.138C16.4134 173.677 21.0867 179.702 27.412 186.909C40.0428 201.3 59.0358 220.149 81.9246 240.812C82.5073 241.338 82.728 242.157 82.4887 242.904C82.2494 243.652 81.5944 244.19 80.8145 244.28C50.1814 247.811 23.7732 252.127 5.13353 256.508C-4.20101 258.702 -11.5044 260.894 -16.398 262.979C-18.8579 264.027 -20.5934 265.001 -21.6621 265.862C-22.6382 266.649 -22.737 267.071 -22.7483 267.135C-22.7266 267.197 -22.5594 267.597 -21.4669 268.212C-20.2707 268.885 -18.3983 269.559 -15.7991 270.187C-10.6285 271.436 -3.0635 272.392 6.50513 273.015C25.6123 274.259 52.3707 274.158 83.1665 272.584C83.9505 272.544 84.6853 272.967 85.0447 273.665C85.4042 274.363 85.3216 275.207 84.8337 275.822C65.6691 299.979 50.0476 321.704 39.9653 337.982C34.9161 346.134 31.3014 352.848 29.3157 357.783C28.3176 360.263 27.7791 362.179 27.6324 363.544C27.4983 364.791 27.7274 365.159 27.7646 365.212C27.8231 365.24 28.2239 365.405 29.4316 365.067C30.7533 364.697 32.5538 363.85 34.8357 362.456C39.375 359.683 45.4001 355.01 52.6069 348.685C66.9976 336.054 85.8469 317.061 106.51 294.172C107.036 293.589 107.854 293.369 108.602 293.608C109.35 293.847 109.888 294.502 109.978 295.282C113.509 325.915 117.825 352.323 122.206 370.963C124.4 380.298 126.592 387.601 128.677 392.495C129.725 394.955 130.699 396.69 131.56 397.759C132.347 398.735 132.769 398.834 132.833 398.845C132.895 398.823 133.295 398.656 133.91 397.564C134.583 396.367 135.257 394.495 135.885 391.896C137.134 386.725 138.09 379.16 138.713 369.592C139.957 350.484 139.856 323.726 138.282 292.93C138.242 292.146 138.665 291.411 139.363 291.052C140.061 290.692 140.905 290.775 141.52 291.263C165.677 310.428 187.402 326.049 203.68 336.131C211.832 341.181 218.546 344.795 223.481 346.781C225.961 347.779 227.877 348.318 229.242 348.464C230.489 348.598 230.857 348.369 230.91 348.332C230.938 348.273 231.103 347.872 230.765 346.665C230.395 345.343 229.548 343.542 228.154 341.261C225.381 336.721 220.708 330.696 214.382 323.489C201.752 309.099 182.759 290.25 159.87 269.587C159.287 269.061 159.067 268.242 159.306 267.494C159.545 266.747 160.2 266.209 160.98 266.119C191.613 262.588 218.021 258.272 236.661 253.89C245.996 251.696 253.299 249.505 258.193 247.42C260.652 246.371 262.388 245.398 263.457 244.536C264.433 243.75 264.532 243.327 264.543 243.263C264.521 243.202 264.354 242.802 263.261 242.187C262.065 241.514 260.193 240.84 257.594 240.212C252.423 238.963 244.858 238.007 235.289 237.384C216.182 236.139 189.424 236.241 158.628 237.814C157.844 237.854 157.109 237.432 156.75 236.734C156.39 236.036 156.473 235.192 156.961 234.577C176.125 210.42 191.747 188.695 201.829 172.417C206.878 164.265 210.493 157.551 212.479 152.616C213.477 150.135 214.016 148.22 214.162 146.855C214.296 145.608 214.067 145.24 214.03 145.187C213.971 145.159 213.57 144.994 212.363 145.332C211.041 145.701 209.24 146.549 206.958 147.943C202.419 150.716 196.394 155.389 189.187 161.714C174.797 174.345 155.948 193.338 135.285 216.227C134.759 216.809 133.94 217.03 133.192 216.791C132.445 216.551 131.906 215.896 131.817 215.117C128.286 184.483 123.969 158.075 119.588 139.436C117.394 130.101 115.203 122.798 113.118 117.904C112.069 115.444 111.096 113.709 110.234 112.64C109.448 111.664 109.025 111.565 108.961 111.554C108.9 111.576 108.5 111.743 107.885 112.835C107.212 114.031 106.538 115.904 105.91 118.503C104.661 123.674 103.705 131.239 103.082 140.807ZM104.402 110.876C105.288 109.301 106.631 107.735 108.63 107.569C110.629 107.403 112.212 108.726 113.346 110.133C114.545 111.621 115.689 113.746 116.794 116.337C119.014 121.547 121.267 129.113 123.478 138.521C127.697 156.468 131.832 181.423 135.274 210.288C154.838 188.787 172.696 170.872 186.551 158.711C193.815 152.335 200.043 147.484 204.875 144.532C207.279 143.064 209.445 141.999 211.286 141.483C213.026 140.996 215.082 140.839 216.613 142.135C218.144 143.431 218.328 145.486 218.135 147.282C217.931 149.183 217.238 151.494 216.186 154.108C214.072 159.361 210.316 166.304 205.227 174.521C195.519 190.194 180.797 210.763 162.82 233.607C191.857 232.238 217.152 232.198 235.549 233.396C245.194 234.024 253.027 234.998 258.532 236.328C261.27 236.989 263.555 237.767 265.221 238.704C266.796 239.59 268.361 240.933 268.527 242.932C268.694 244.931 267.371 246.514 265.964 247.648C264.476 248.847 262.351 249.991 259.759 251.096C254.55 253.316 246.984 255.569 237.575 257.781C219.628 261.999 194.673 266.134 165.809 269.576C187.309 289.14 205.225 306.998 217.386 320.853C223.761 328.117 228.612 334.345 231.564 339.177C233.033 341.582 234.098 343.747 234.613 345.588C235.1 347.328 235.258 349.384 233.962 350.915C232.666 352.446 230.611 352.631 228.815 352.437C226.914 352.233 224.602 351.54 221.989 350.488C216.735 348.374 209.793 344.618 201.576 339.529C185.903 329.821 165.334 315.099 142.489 297.122C143.858 326.159 143.899 351.454 142.7 369.851C142.072 379.496 141.099 387.33 139.769 392.834C139.107 395.573 138.33 397.857 137.392 399.523C136.506 401.098 135.163 402.663 133.164 402.83C131.165 402.996 129.582 401.673 128.449 400.266C127.249 398.778 126.105 396.653 125.001 394.061C122.781 388.852 120.528 381.286 118.316 371.877C114.098 353.931 109.963 328.976 106.521 300.111C86.9565 321.611 69.0988 339.527 55.2429 351.688C47.9789 358.064 41.7513 362.914 36.9188 365.866C34.5147 367.335 32.3495 368.4 30.5086 368.915C28.7688 369.402 26.7121 369.56 25.1812 368.264C23.6502 366.968 23.4661 364.913 23.6592 363.117C23.8635 361.216 24.5569 358.905 25.6085 356.291C27.7224 351.037 31.4788 344.095 36.5681 335.878C46.2757 320.205 60.9979 299.636 78.9746 276.791C49.9376 278.16 24.6423 278.201 6.24539 277.003C-3.39924 276.374 -11.2329 275.401 -16.7374 274.071C-19.4759 273.409 -21.7602 272.632 -23.4264 271.694C-25.001 270.808 -26.5668 269.466 -26.7329 267.466C-26.899 265.467 -25.5763 263.885 -24.1695 262.751C-22.681 261.551 -20.5563 260.407 -17.9646 259.303C-12.755 257.083 -5.18947 254.83 4.21921 252.618C22.1661 248.4 47.1211 244.265 75.9859 240.823C54.4852 221.259 36.57 203.401 24.4087 189.545C18.0331 182.281 13.1824 176.053 10.2304 171.221C8.76181 168.817 7.69644 166.652 7.18121 164.811C6.6943 163.071 6.5367 161.014 7.83287 159.483C9.12899 157.952 11.1835 157.768 12.98 157.961C14.8808 158.166 17.1922 158.859 19.8058 159.911C25.0594 162.024 32.0022 165.781 40.2189 170.87C55.8919 180.578 76.4613 195.3 99.3053 213.277C97.9363 184.24 97.8957 158.944 99.0941 140.547C99.7223 130.903 100.696 123.069 102.026 117.565C102.687 114.826 103.465 112.542 104.402 110.876ZM341.481 90.2257C341.39 89.126 342.207 88.1605 343.307 88.0691C416.562 81.9821 481.789 130.286 499.193 199.293C504.969 128.36 561.33 69.9528 634.585 63.8658C635.684 63.7744 636.65 64.5918 636.741 65.6915L648.843 211.33C655.618 292.864 595.013 364.453 513.48 371.228C431.946 378.003 360.357 317.398 353.583 235.865L341.481 90.2257ZM499.222 223.763C492.685 145.094 424.135 86.449 345.63 91.8995L357.565 235.534C364.157 314.868 433.815 373.838 513.149 367.245C592.483 360.653 651.453 290.995 644.86 211.661L632.925 68.0271C554.598 75.6084 496.667 144.763 503.204 223.432C503.295 224.532 502.478 225.497 501.378 225.589C500.279 225.68 499.313 224.863 499.222 223.763ZM869.636 48.87C870.164 48.8261 870.688 48.9938 871.092 49.3362L1023.95 178.743C1024.57 179.266 1024.81 180.108 1024.57 180.878C1024.32 181.647 1023.63 182.193 1022.83 182.26L886.501 193.588L1035.68 319.878C1036.3 320.4 1036.54 321.242 1036.29 322.012C1036.05 322.782 1035.36 323.327 1034.56 323.394L752.287 346.849C751.481 346.916 750.715 346.491 750.345 345.773C749.975 345.054 750.074 344.184 750.596 343.567L876.887 194.386L740.559 205.714C739.754 205.781 738.988 205.356 738.618 204.638C738.248 203.92 738.347 203.049 738.869 202.432L868.276 49.5702C868.619 49.1657 869.108 48.9138 869.636 48.87ZM881.385 190.003C881.378 190.003 881.37 190.004 881.363 190.005C881.356 190.005 881.348 190.006 881.341 190.006L745.036 201.333L870.035 53.6771L1017.69 178.677L881.385 190.003ZM881.762 194.812L756.763 342.467L1029.42 319.811L881.762 194.812Z" fill="#FE2C55"/>
</g>
<g style="mix-blend-mode:plus-lighter">
<path d="M1255.77 41.4681C1214.84 11.7802 1157.58 20.9233 1127.93 61.8838C1098.32 102.794 1107.45 159.962 1148.33 189.613L1316.42 311.517L1462.08 163.542C1497.51 127.55 1497.08 69.6598 1461.12 34.1982C1425.11 -1.30531 1367.13 -0.874729 1331.66 35.1622L1296.43 70.954L1255.77 41.4681Z" stroke="white" stroke-width="4" stroke-linecap="round" stroke-linejoin="round"/>
</g>
</svg>
