<svg width="1440" height="2694" viewBox="0 0 1440 2694" fill="none" xmlns="http://www.w3.org/2000/svg">
<rect x="-595.707" y="315.987" width="2233.75" height="1468.22" rx="130" transform="rotate(-4.98205 -595.707 315.987)" fill="url(#paint0_linear_121_29433)"/>
<g opacity="0.6" filter="url(#filter0_f_121_29433)">
<path d="M1235.18 2194.47C1566.03 2230.37 1863.35 1991.25 1899.24 1660.39C1935.14 1329.54 1297.24 -78.1475 1365.16 996.327C1433.09 2070.8 736.992 1199.55 701.097 1530.41C665.202 1861.27 904.317 2158.58 1235.18 2194.47Z" fill="url(#paint1_linear_121_29433)"/>
</g>
<g opacity="0.6" filter="url(#filter1_f_121_29433)">
<path d="M-743.855 1524.41C-583.864 1924.97 -129.443 2120 271.125 1960.01C671.692 1800.02 1895.46 214.254 706.728 945.03C-482 1675.81 92.3147 349.436 -308.253 509.427C-708.82 669.418 -903.846 1123.84 -743.855 1524.41Z" fill="url(#paint2_linear_121_29433)"/>
</g>
<defs>
<filter id="filter0_f_121_29433" x="202.397" y="103.646" width="2193.44" height="2589.53" filterUnits="userSpaceOnUse" color-interpolation-filters="sRGB">
<feFlood flood-opacity="0" result="BackgroundImageFix"/>
<feBlend mode="normal" in="SourceGraphic" in2="BackgroundImageFix" result="shape"/>
<feGaussianBlur stdDeviation="247.566" result="effect1_foregroundBlur_121_29433"/>
</filter>
<filter id="filter1_f_121_29433" x="-1294.91" y="0.764313" width="3003.17" height="2510.3" filterUnits="userSpaceOnUse" color-interpolation-filters="sRGB">
<feFlood flood-opacity="0" result="BackgroundImageFix"/>
<feBlend mode="normal" in="SourceGraphic" in2="BackgroundImageFix" result="shape"/>
<feGaussianBlur stdDeviation="247.566" result="effect1_foregroundBlur_121_29433"/>
</filter>
<linearGradient id="paint0_linear_121_29433" x1="524.67" y1="1008.87" x2="539.883" y2="1261.59" gradientUnits="userSpaceOnUse">
<stop stop-color="#121212"/>
<stop offset="1" stop-color="#181818"/>
</linearGradient>
<linearGradient id="paint1_linear_121_29433" x1="1324.68" y1="1445.1" x2="1771.8" y2="1414.22" gradientUnits="userSpaceOnUse">
<stop stop-color="#FE2C55"/>
<stop offset="0.5" stop-color="#161313"/>
<stop offset="1" stop-color="#24F5EF"/>
</linearGradient>
<linearGradient id="paint2_linear_121_29433" x1="168.393" y1="1171.44" x2="475.487" y2="1664.51" gradientUnits="userSpaceOnUse">
<stop stop-color="#FE2C55"/>
<stop offset="0.5" stop-color="#161313"/>
<stop offset="1" stop-color="#24F5EF"/>
</linearGradient>
</defs>
</svg>
