<svg width="1440" height="409" viewBox="0 0 1440 409" fill="none" xmlns="http://www.w3.org/2000/svg">
<path fill-rule="evenodd" clip-rule="evenodd" d="M891.027 34.8424C894.414 34.5609 897.783 34.9939 901.81 35.9806C907.341 37.3357 911.5 41.1879 914.567 46.4849C917.618 51.7549 919.689 58.6121 921.049 66.3829C922.998 77.5112 923.539 90.8179 923.231 104.675C927.823 91.5968 933.017 79.3335 938.761 69.6047C942.771 62.8112 947.125 57.1231 951.837 53.2655C956.573 49.3883 961.822 47.248 967.475 47.9283C971.593 48.4238 974.898 49.2055 977.968 50.6618C981.038 52.1182 983.735 54.1837 986.723 57.0582C990.768 60.9498 992.443 66.272 992.483 72.286C992.523 78.2678 990.956 85.1089 988.333 92.3781C984.583 102.772 978.569 114.327 971.533 125.966C981.869 117.127 992.29 109.31 1001.93 103.916C1008.68 100.144 1015.17 97.483 1021.08 96.5479C1027.02 95.6076 1032.55 96.393 1037.04 99.7502C1040.37 102.23 1042.84 104.553 1044.78 107.345C1046.72 110.137 1048.03 113.271 1049.19 117.253C1050.77 122.682 1049.54 128.172 1046.53 133.444C1043.54 138.687 1038.7 143.876 1032.73 148.908C1024.18 156.109 1013.06 163.185 1001.03 169.812C1014.53 167.271 1027.61 165.658 1038.79 165.775C1046.6 165.857 1053.63 166.783 1059.27 168.925C1064.95 171.078 1069.39 174.532 1071.62 179.727C1073.26 183.537 1074.24 186.788 1074.53 190.174C1074.81 193.561 1074.38 196.93 1073.39 200.957C1072.04 206.45 1068.23 210.59 1062.99 213.651C1057.78 216.695 1051 218.77 1043.31 220.14C1032.3 222.101 1019.14 222.67 1005.4 222.393C1018.36 226.942 1030.5 232.085 1040.12 237.776C1046.84 241.753 1052.47 246.071 1056.29 250.749C1060.12 255.451 1062.24 260.662 1061.58 266.279C1061.09 270.397 1060.32 273.705 1058.87 276.778C1057.42 279.851 1055.36 282.552 1052.49 285.546C1048.61 289.6 1043.29 291.287 1037.28 291.34C1031.29 291.393 1024.45 289.841 1017.17 287.235C1006.77 283.508 995.204 277.52 983.55 270.509C992.412 280.825 1000.25 291.228 1005.67 300.861C1009.45 307.597 1012.13 314.085 1013.08 319.991C1014.03 325.929 1013.26 331.455 1009.91 335.961C1007.44 339.29 1005.12 341.772 1002.33 343.716C999.543 345.659 996.412 346.976 992.434 348.144C986.97 349.749 981.439 348.504 976.128 345.462C970.844 342.435 965.61 337.544 960.533 331.506C953.261 322.858 946.114 311.621 939.425 299.48C942.018 313.096 943.681 326.31 943.597 337.608C943.538 345.497 942.627 352.602 940.489 358.304C938.339 364.035 934.873 368.521 929.642 370.771C925.832 372.409 922.581 373.392 919.195 373.674C915.808 373.955 912.439 373.522 908.412 372.536C902.881 371.181 898.722 367.329 895.655 362.032C892.604 356.762 890.533 349.904 889.172 342.134C887.224 331.005 886.682 317.698 886.991 303.841C882.399 316.919 877.205 329.182 871.461 338.911C867.45 345.704 863.097 351.393 858.385 355.25C853.649 359.128 848.399 361.268 842.745 360.588C838.629 360.092 835.323 359.311 832.253 357.854C829.183 356.398 826.487 354.332 823.499 351.458C819.454 347.566 817.779 342.244 817.739 336.23C817.698 330.248 819.266 323.407 821.888 316.138C825.638 305.744 831.652 294.19 838.688 282.552C828.352 291.391 817.932 299.207 808.288 304.6C801.543 308.372 795.049 311.033 789.141 311.968C783.201 312.908 777.677 312.123 773.179 308.766C769.855 306.287 767.378 303.963 765.44 301.171C763.503 298.379 762.193 295.245 761.033 291.263C759.452 285.834 760.68 280.343 763.689 275.072C766.682 269.829 771.519 264.64 777.493 259.608C786.043 252.407 797.16 245.331 809.191 238.704C795.692 241.246 782.614 242.858 771.436 242.741C763.625 242.66 756.592 241.734 750.947 239.592C745.273 237.439 740.832 233.984 738.598 228.789C736.96 224.98 735.977 221.728 735.695 218.342C735.414 214.955 735.847 211.586 736.833 207.559C738.179 202.066 741.988 197.925 747.229 194.865C752.443 191.82 759.226 189.746 766.916 188.376C777.921 186.415 791.086 185.846 804.819 186.123C791.859 181.574 779.727 176.431 770.105 170.74C763.382 166.764 757.755 162.445 753.937 157.768C750.1 153.066 747.982 147.854 748.646 142.237C749.131 138.119 749.905 134.812 751.355 131.738C752.805 128.665 754.865 125.964 757.733 122.97C761.616 118.916 766.934 117.229 772.948 117.176C778.929 117.123 785.774 118.675 793.048 121.281C803.451 125.008 815.019 130.996 826.672 138.007C817.811 127.691 809.972 117.288 804.557 107.656C800.77 100.919 798.095 94.4311 797.147 88.525C796.193 82.5871 796.966 77.0616 800.313 72.556C802.786 69.2268 805.104 66.7445 807.892 64.8012C810.679 62.858 813.81 61.5416 817.789 60.373C823.253 58.7682 828.783 60.0122 834.094 63.054C839.379 66.0804 844.612 70.9715 849.689 77.0093C856.96 85.6559 864.108 96.8932 870.797 109.033C868.204 95.4172 866.541 82.2036 866.625 70.9063C866.684 63.0176 867.594 55.9126 869.733 50.2112C871.883 44.4808 875.349 39.995 880.58 37.7455C884.389 36.1073 887.641 35.124 891.027 34.8424ZM891.405 39.3817C888.685 39.6078 885.935 40.4008 882.38 41.9298C878.627 43.5434 875.862 46.8432 873.998 51.8112C872.123 56.8083 871.237 63.3147 871.18 70.9403C871.066 86.1813 874.262 105.292 878.712 124.326C878.975 125.452 878.354 126.596 877.267 126.988C876.179 127.379 874.971 126.895 874.456 125.86C865.741 108.363 856.013 91.6059 846.203 79.9409C841.295 74.1045 836.462 69.6591 831.831 67.0066C827.226 64.3695 822.992 63.5922 819.073 64.7433C815.359 65.8342 812.735 66.9772 810.496 68.5378C808.258 70.0984 806.278 72.1642 803.97 75.2718C801.568 78.5052 800.82 82.6726 801.644 87.803C802.473 92.9651 804.872 98.9202 808.528 105.424C815.835 118.423 827.865 133.097 841.021 147.166C841.81 148.009 841.843 149.309 841.098 150.191C840.353 151.073 839.066 151.258 838.102 150.621C822.03 140.004 805.551 130.599 791.512 125.569C784.489 123.053 778.216 121.684 772.988 121.731C767.792 121.777 763.809 123.211 761.023 126.12C758.345 128.915 756.639 131.213 755.475 133.681C754.311 136.15 753.623 138.927 753.169 142.771C752.693 146.801 754.145 150.818 757.466 154.888C760.808 158.982 765.929 162.978 772.424 166.82C785.407 174.499 803.358 181.261 821.927 186.918C823.032 187.255 823.71 188.365 823.505 189.502C823.299 190.638 822.275 191.441 821.122 191.37C801.748 190.166 782.564 190.214 767.715 192.86C760.286 194.184 754.089 196.134 749.526 198.798C744.989 201.447 742.223 204.701 741.258 208.643C740.337 212.402 740.008 215.245 740.235 217.964C740.461 220.684 741.254 223.434 742.783 226.989C744.385 230.717 747.651 233.47 752.563 235.333C757.504 237.208 763.938 238.108 771.484 238.187C786.566 238.344 805.494 235.224 824.403 230.838C825.529 230.577 826.671 231.2 827.061 232.287C827.452 233.374 826.967 234.581 825.932 235.096C808.553 243.741 791.964 253.375 780.428 263.092C774.656 267.953 770.265 272.741 767.645 277.33C765.041 281.893 764.272 286.094 765.406 289.99C766.489 293.706 767.626 296.332 769.182 298.574C770.738 300.816 772.8 302.801 775.903 305.115C779.131 307.524 783.297 308.281 788.429 307.469C793.593 306.652 799.553 304.266 806.065 300.624C819.08 293.346 833.78 281.349 847.879 268.223C848.724 267.436 850.024 267.406 850.904 268.153C851.784 268.9 851.967 270.188 851.328 271.15C840.675 287.198 831.233 303.657 826.173 317.684C823.641 324.702 822.258 330.971 822.293 336.2C822.328 341.396 823.754 345.383 826.657 348.175C829.446 350.859 831.74 352.569 834.206 353.739C836.671 354.909 839.447 355.603 843.289 356.066C847.345 356.554 851.393 355.087 855.499 351.726C859.629 348.345 863.662 343.162 867.539 336.595C875.288 323.47 882.116 305.337 887.822 286.64C888.159 285.535 889.271 284.858 890.408 285.064C891.545 285.271 892.346 286.297 892.273 287.45C891.027 306.958 891.03 326.335 893.659 341.348C894.974 348.86 896.923 355.131 899.597 359.75C902.256 364.342 905.528 367.14 909.495 368.111C913.255 369.032 916.097 369.361 918.817 369.134C921.537 368.908 924.287 368.115 927.842 366.586C931.595 364.972 934.36 361.672 936.224 356.704C938.099 351.707 938.985 345.2 939.042 337.574C939.156 322.332 935.959 303.221 931.509 284.186C931.246 283.061 931.868 281.917 932.955 281.525C934.042 281.133 935.25 281.618 935.766 282.652C944.48 300.15 954.209 316.908 964.019 328.574C968.927 334.411 973.76 338.857 978.392 341.51C982.996 344.147 987.231 344.925 991.15 343.774C994.864 342.683 997.487 341.54 999.726 339.979C1001.97 338.418 1003.95 336.352 1006.25 333.245C1008.65 330.012 1009.4 325.844 1008.58 320.714C1007.75 315.551 1005.35 309.596 1001.69 303.093C994.387 290.093 982.358 275.419 969.202 261.35C968.413 260.507 968.381 259.207 969.125 258.325C969.87 257.443 971.157 257.258 972.121 257.895C988.193 268.512 1004.67 277.917 1018.71 282.947C1025.73 285.463 1032.01 286.832 1037.23 286.785C1042.43 286.739 1046.41 285.305 1049.2 282.396C1051.88 279.601 1053.58 277.303 1054.75 274.835C1055.91 272.366 1056.6 269.589 1057.05 265.745C1057.53 261.715 1056.08 257.698 1052.76 253.629C1049.41 249.534 1044.29 245.538 1037.8 241.696C1024.82 234.018 1006.86 227.256 988.296 221.598C987.191 221.261 986.513 220.151 986.718 219.014C986.924 217.878 987.948 217.075 989.101 217.146C1008.47 218.35 1027.66 218.302 1042.51 215.656C1049.94 214.332 1056.13 212.382 1060.7 209.717C1065.23 207.068 1068 203.814 1068.96 199.873C1069.89 196.114 1070.21 193.271 1069.99 190.552C1069.76 187.832 1068.97 185.082 1067.44 181.527C1065.84 177.799 1062.57 175.047 1057.66 173.183C1052.72 171.309 1046.28 170.409 1038.74 170.33C1023.66 170.172 1004.73 173.292 985.82 177.678C984.694 177.939 983.552 177.316 983.162 176.229C982.771 175.142 983.256 173.935 984.291 173.42C1001.67 164.774 1018.26 155.141 1029.8 145.424C1035.57 140.563 1039.96 135.776 1042.58 131.186C1045.18 126.623 1045.95 122.422 1044.82 118.527C1043.73 114.81 1042.6 112.184 1041.04 109.942C1039.48 107.7 1037.42 105.715 1034.32 103.401C1031.09 100.992 1026.93 100.234 1021.79 101.047C1016.63 101.864 1010.67 104.25 1004.16 107.892C991.142 115.171 976.442 127.169 962.343 140.294C961.498 141.081 960.198 141.111 959.318 140.364C958.438 139.617 958.255 138.33 958.894 137.368C969.546 121.319 978.988 104.86 984.048 90.8324C986.58 83.8145 987.963 77.5447 987.928 72.3165C987.894 67.1204 986.468 63.1333 983.565 60.3408C980.776 57.6575 978.482 55.9469 976.016 54.7772C973.55 53.6075 970.774 52.9131 966.931 52.4505C962.876 51.9626 958.828 53.4286 954.722 56.79C950.592 60.171 946.56 65.3535 942.683 71.9204C934.934 85.0453 928.106 103.179 922.4 121.876C922.063 122.981 920.951 123.659 919.814 123.452C918.677 123.245 917.875 122.219 917.949 121.066C919.195 101.558 919.192 82.1817 916.563 67.1685C915.247 59.6569 913.299 53.3861 910.625 48.767C907.966 44.1748 904.694 41.3767 900.726 40.4047C896.967 39.4837 894.124 39.1556 891.405 39.3817ZM1162.63 19.8984L1176.48 186.486C1183.71 273.449 1260.07 338.086 1347.03 330.857L1513.62 317.008L1499.77 150.42C1492.54 63.4571 1416.18 -1.17957 1329.22 6.04979L1162.63 19.8984ZM1157.91 18.0062C1157.8 16.7527 1158.73 15.6521 1159.99 15.5479L1328.84 1.51054C1418.31 -5.92723 1496.87 60.5728 1504.31 150.043L1518.35 318.9C1518.45 320.154 1517.52 321.254 1516.27 321.359L1347.41 335.396C1257.94 342.834 1179.38 276.334 1171.94 186.864L1157.91 18.0062ZM-118.599 184.52C-91.6867 147.342 -39.721 139.041 -2.56585 165.986L31.7388 190.863L61.4648 160.663C93.6608 127.953 146.284 127.56 178.965 159.783C211.606 191.969 211.999 244.512 179.843 277.181L51.2642 407.811C50.4741 408.613 49.2159 408.718 48.3041 408.057L-100.078 300.451C-137.188 273.541 -145.476 221.653 -118.599 184.52ZM-5.23989 169.673C-40.3573 144.206 -89.473 152.052 -114.909 187.191C-140.313 222.288 -132.479 271.329 -97.4044 296.764L49.3923 403.219L176.597 273.986C206.989 243.109 206.617 193.447 175.767 163.027C144.878 132.571 95.1412 132.942 64.711 163.858L33.6108 195.454C32.8206 196.257 31.5624 196.362 30.6506 195.7L-5.23989 169.673Z" fill="white" fill-opacity="0.02"/>
</svg>
