<svg width="1440" height="420" viewBox="0 0 1440 420" fill="none" xmlns="http://www.w3.org/2000/svg">
<path fill-rule="evenodd" clip-rule="evenodd" d="M365.612 246.151C360.142 154.313 428.996 74.4399 521.171 66.7808C614.696 59.0094 696.811 128.525 704.583 222.05C712.242 314.225 644.828 395.318 553.347 405.079C553.329 405.081 553.312 405.082 553.294 405.084L382.249 419.344C381.646 419.394 381.046 419.202 380.584 418.811C380.121 418.419 379.833 417.86 379.783 417.256L365.616 246.204C365.615 246.186 365.613 246.169 365.612 246.151ZM370.171 245.853L384.147 414.601L552.862 400.536C552.871 400.535 552.88 400.534 552.888 400.534C641.895 391.022 707.482 312.116 700.03 222.428C692.468 131.418 612.56 63.7709 521.549 71.3333C431.862 78.7858 364.862 156.497 370.171 245.853ZM941.754 33.0435C942.268 33.4582 942.577 34.0748 942.602 34.7343C942.69 37.0614 942.83 39.3979 943.025 41.7437C950.031 126.06 1024.06 188.732 1108.38 181.726C1117.54 180.968 1126.62 179.393 1135.5 177.018C1136.14 176.847 1136.82 176.961 1137.36 177.33C1137.91 177.699 1138.27 178.287 1138.35 178.942C1138.64 181.264 1138.89 183.602 1139.08 185.955C1146.86 279.558 1077.29 361.743 983.683 369.521C890.081 377.298 807.896 307.724 800.119 214.121C792.779 125.797 854.314 47.6401 939.923 32.5709C940.573 32.4565 941.241 32.6288 941.754 33.0435ZM938.158 37.5408C856.189 53.2958 797.603 128.676 804.671 213.743C812.24 304.831 892.218 372.537 983.305 364.968C1074.39 357.399 1142.1 277.422 1134.53 186.334C1134.41 184.914 1134.28 183.5 1134.12 182.092C1125.8 184.171 1117.31 185.571 1108.76 186.278C1021.93 193.493 945.688 128.953 938.473 42.122C938.346 40.5912 938.241 39.0641 938.158 37.5408ZM1388.81 1.11762C1389.63 0.154813 1391.07 0.0350488 1392.03 0.850132L1566.78 148.786C1567.49 149.383 1567.76 150.346 1567.48 151.226C1567.2 152.106 1566.42 152.73 1565.49 152.806L1409.65 165.756L1580.19 310.129C1580.89 310.726 1581.17 311.689 1580.89 312.569C1580.61 313.449 1579.82 314.072 1578.9 314.149L1256.22 340.962C1255.29 341.038 1254.42 340.553 1254 339.731C1253.57 338.91 1253.69 337.915 1254.28 337.21L1398.66 166.669L1242.81 179.619C1241.89 179.696 1241.01 179.21 1240.59 178.389C1240.17 177.567 1240.28 176.572 1240.88 175.867L1388.81 1.11762ZM1403.75 161.662C1403.77 161.661 1403.78 161.659 1403.8 161.658L1559.62 148.71L1390.82 5.81257L1247.93 174.61L1403.75 161.662ZM1404.23 167.155L1261.33 335.953L1573.03 310.053L1404.23 167.155ZM-63.889 285.905C-63.3344 286.401 -62.6341 287.019 -61.7939 287.747C-59.3941 289.824 -55.8546 292.792 -51.3152 296.332C-42.2338 303.415 -29.1633 312.781 -13.2191 321.906C18.7146 340.182 61.9407 357.356 107.639 353.559C153.337 349.762 193.136 325.689 221.615 302.393C235.834 290.762 247.18 279.367 254.968 270.882C258.86 266.641 261.862 263.13 263.886 260.685C264.594 259.829 265.183 259.103 265.648 258.523C265.093 258.027 264.393 257.409 263.553 256.682C261.153 254.604 257.614 251.637 253.074 248.096C243.993 241.013 230.922 231.647 214.978 222.522C183.044 204.246 139.818 187.072 94.1203 190.869C48.4222 194.666 8.6235 218.739 -19.8559 242.035C-34.0753 253.667 -45.4207 265.062 -53.2085 273.546C-57.1014 277.787 -60.1025 281.298 -62.1266 283.744C-62.8351 284.6 -63.4238 285.325 -63.889 285.905ZM268.757 258.265C270.324 256.602 270.323 256.601 270.322 256.6L270.305 256.584L270.256 256.539C270.213 256.499 270.151 256.441 270.069 256.365C269.905 256.214 269.663 255.992 269.345 255.704C268.71 255.128 267.77 254.29 266.543 253.228C264.091 251.104 260.491 248.087 255.884 244.494C246.672 237.309 233.42 227.813 217.247 218.557C184.947 200.071 140.76 182.41 93.742 186.316C46.724 190.223 6.05798 214.936 -22.7483 238.499C-37.1717 250.298 -48.6744 261.851 -56.574 270.457C-60.5248 274.761 -63.5772 278.332 -65.6458 280.831C-66.6801 282.081 -67.4687 283.063 -68.0009 283.735C-68.267 284.072 -68.469 284.331 -68.6055 284.507C-68.6738 284.595 -68.7257 284.663 -68.7612 284.709L-68.8019 284.762L-68.8129 284.776L-68.8161 284.781C-68.817 284.782 -68.8177 284.783 -66.9983 286.164L-68.8177 284.783C-69.5236 285.713 -69.4145 287.025 -68.5648 287.826L-66.9983 286.164C-68.5648 287.826 -68.564 287.827 -68.5628 287.828L-68.559 287.831L-68.5458 287.844L-68.4968 287.89C-68.4543 287.929 -68.3919 287.987 -68.31 288.063C-68.1462 288.214 -67.9043 288.436 -67.5863 288.724C-66.9505 289.3 -66.0106 290.138 -64.7841 291.2C-62.3314 293.324 -58.7317 296.341 -54.1246 299.934C-44.9129 307.119 -31.6612 316.615 -15.4883 325.871C16.812 344.357 60.9991 362.019 108.017 358.112C155.035 354.205 195.701 329.492 224.507 305.929C238.931 294.131 250.433 282.578 258.333 273.971C262.284 269.667 265.336 266.097 267.405 263.597C268.439 262.348 269.228 261.366 269.76 260.693C270.026 260.357 270.228 260.098 270.365 259.921C270.433 259.833 270.485 259.766 270.52 259.72L270.561 259.666L270.575 259.648C270.576 259.646 270.577 259.646 268.757 258.265ZM268.757 258.265L270.577 259.646C271.283 258.716 271.174 257.403 270.324 256.602L268.757 258.265Z" fill="white" fill-opacity="0.02"/>
</svg>
