<svg width="1440" height="460" viewBox="0 0 1440 460" fill="none" xmlns="http://www.w3.org/2000/svg">
<path fill-rule="evenodd" clip-rule="evenodd" d="M859.585 42.0994C860.395 41.7492 861.334 41.8999 861.996 42.4866L947.281 118.076L1018.92 29.4472C1019.48 28.7594 1020.38 28.4557 1021.23 28.6674C1022.09 28.8791 1022.75 29.5682 1022.93 30.4368L1037.37 101.739L1112.27 98.3273C1113.17 98.2864 1114.01 98.7788 1114.41 99.5848C1114.82 100.391 1114.71 101.36 1114.15 102.061L1036.96 197.559L1128.85 279.006C1129.52 279.603 1129.79 280.542 1129.52 281.404C1129.25 282.266 1128.51 282.89 1127.62 282.998L1053.18 291.991L1050.7 364.703C1050.67 365.589 1050.13 366.377 1049.32 366.728C1048.51 367.078 1047.58 366.927 1046.91 366.34L961.629 290.75L889.99 379.38C889.434 380.068 888.532 380.371 887.676 380.16C886.819 379.948 886.16 379.259 885.984 378.39L871.543 307.083L796.638 310.5C795.741 310.541 794.902 310.048 794.497 309.242C794.092 308.436 794.196 307.467 794.762 306.766L871.955 211.269L780.059 129.821C779.385 129.224 779.123 128.285 779.389 127.423C779.656 126.561 780.401 125.937 781.293 125.829L855.731 116.832L858.208 44.1238C858.239 43.238 858.775 42.4496 859.585 42.0994ZM862.602 49.1318L860.223 118.952C860.184 120.08 859.333 121.012 858.217 121.146L786.891 129.768L876.613 209.29C877.531 210.104 877.647 211.499 876.876 212.452L801.509 305.691L873.283 302.417C874.406 302.366 875.399 303.144 875.623 304.251L889.491 372.725L959.584 286.009C959.976 285.524 960.547 285.222 961.166 285.17C961.785 285.119 962.398 285.323 962.864 285.736L1046.31 359.695L1048.68 289.871C1048.72 288.742 1049.57 287.811 1050.69 287.676L1122.02 279.059L1032.3 199.538C1031.38 198.724 1031.26 197.329 1032.04 196.376L1107.4 103.136L1035.63 106.405C1034.51 106.456 1033.51 105.678 1033.29 104.571L1019.42 36.1013L949.326 122.818C948.935 123.302 948.364 123.605 947.745 123.657C947.126 123.708 946.513 123.504 946.047 123.091L862.602 49.1318ZM1371.77 0.506458C1372.36 0.166631 1373.07 0.107749 1373.71 0.345845L1372.91 2.49252L1371.77 0.506458ZM1373.12 5.02543C1373.01 5.09112 1372.89 5.1626 1372.76 5.23986C1371.92 5.74775 1370.67 6.50444 1369.08 7.49417C1365.9 9.47378 1361.37 12.3847 1355.94 16.1009C1345.07 23.5366 1330.66 34.1799 1316.45 47.0222C1302.22 59.874 1288.26 74.8666 1278.24 90.9894C1268.21 107.12 1262.22 124.211 1263.64 141.337L1280.45 343.583L1520.41 323.644L1503.6 121.398C1502.18 104.271 1493.45 88.4034 1480.9 74.1497C1468.35 59.9028 1452.1 47.4199 1435.95 37.0922C1419.81 26.7722 1403.84 18.6532 1391.9 13.1125C1385.93 10.3434 1380.98 8.22134 1377.52 6.79312C1375.79 6.07907 1374.43 5.53863 1373.51 5.17766C1373.37 5.12277 1373.24 5.07201 1373.12 5.02543ZM1484.31 71.1151C1497.24 85.7935 1506.61 102.559 1508.15 121.02L1525.14 325.549C1525.25 326.81 1524.31 327.917 1523.06 328.021L1278.55 348.338C1277.3 348.442 1276.2 347.505 1276.09 346.244L1259.1 141.715C1257.56 123.254 1264.04 105.171 1274.37 88.5601C1284.7 71.9414 1299 56.6242 1313.4 43.6146C1327.81 30.5954 1342.39 19.8259 1353.37 12.314C1358.86 8.55637 1363.45 5.60984 1366.67 3.60044C1368.29 2.59567 1369.56 1.82496 1370.43 1.30409C1370.86 1.04365 1371.2 0.845649 1371.42 0.712064C1371.54 0.645266 1371.62 0.594575 1371.68 0.560232L1371.75 0.521002L1371.77 0.510627L1371.77 0.507771C1371.77 0.506984 1371.77 0.506458 1372.91 2.49252C1373.71 0.345845 1373.71 0.346209 1373.71 0.346754L1373.72 0.348761L1373.73 0.356022L1373.81 0.383587C1373.87 0.407741 1373.97 0.443431 1374.09 0.490558C1374.33 0.58481 1374.7 0.72486 1375.17 0.909955C1376.11 1.28014 1377.49 1.83059 1379.25 2.55551C1382.76 4.00521 1387.78 6.15332 1393.81 8.95331C1405.88 14.5508 1422.04 22.7655 1438.4 33.2277C1454.75 43.6822 1471.38 56.43 1484.31 71.1151ZM-96.046 124.841C-96.1507 123.58 -95.2181 122.474 -93.9628 122.369L71.7071 108.603C72.9624 108.499 74.0649 109.437 74.1697 110.697L84.7447 237.964C96.1469 162.212 158.042 101.429 237.377 94.8371C238.632 94.7328 239.735 95.6705 239.84 96.9314L253.668 263.348C253.718 263.953 253.527 264.554 253.136 265.017C252.746 265.481 252.187 265.769 251.585 265.82L124.889 276.347C200.314 287.856 260.874 350.071 267.496 429.764C267.601 431.025 266.668 432.131 265.413 432.236L99.7428 446.002C98.4876 446.106 97.385 445.168 97.2803 443.907L86.7052 316.641C75.303 392.392 13.4077 453.176 -65.9272 459.768C-67.1824 459.872 -68.285 458.935 -68.3897 457.674L-82.2179 291.257C-82.3226 289.996 -81.39 288.89 -80.1347 288.785L46.5608 278.258C-28.8638 266.749 -89.4241 204.534 -96.046 124.841ZM83.6263 279.776L-77.4824 293.163L-64.035 454.997C24.3016 446.437 89.8023 368.711 83.6263 279.776ZM88.1888 279.412C176.727 273.275 254.158 339.124 262.745 427.86L101.636 441.247L88.1888 279.412ZM87.8236 274.829C81.6476 185.893 147.148 108.167 235.485 99.6077L248.932 261.442L87.8236 274.829ZM83.2611 275.193C-5.27686 281.33 -82.7076 215.481 -91.2951 126.745L69.8137 113.358L83.2611 275.193ZM339.45 88.7622C339.857 88.2789 340.446 87.9867 341.075 87.955L373.795 86.304C374.373 86.2748 374.941 86.4679 375.384 86.8441L516.548 206.894L635.962 65.1917C636.336 64.7477 636.864 64.4634 637.44 64.3967L669.983 60.6248C670.609 60.5522 671.238 60.7433 671.719 61.1527C672.201 61.5621 672.492 62.1532 672.524 62.7858L674.191 95.6518C674.22 96.233 674.028 96.8035 673.654 97.2475L554.241 238.95L695.404 358.999C695.846 359.376 696.13 359.907 696.197 360.485L699.977 393.175C700.05 393.804 699.86 394.435 699.453 394.919C699.046 395.402 698.457 395.694 697.828 395.726L665.108 397.376C664.53 397.405 663.961 397.212 663.519 396.835L522.355 276.787L402.941 418.488C402.567 418.932 402.039 419.216 401.463 419.283L368.92 423.056C368.294 423.128 367.665 422.937 367.184 422.528C366.702 422.119 366.411 421.527 366.379 420.895L364.711 388.028C364.682 387.447 364.873 386.876 365.248 386.432L484.662 244.731L343.499 124.681C343.057 124.305 342.773 123.774 342.706 123.196L338.926 90.5056C338.853 89.8765 339.043 89.2454 339.45 88.7622ZM343.738 92.4083L347.133 121.771L489.349 242.716C490.311 243.534 490.431 244.98 489.617 245.945L369.313 388.703L370.811 418.224L400.041 414.835L520.346 272.077C521.159 271.112 522.598 270.992 523.56 271.81L665.777 392.754L695.165 391.272L691.77 361.91L549.554 240.965C548.592 240.147 548.472 238.701 549.286 237.736L669.589 94.9769L668.092 65.4566L638.862 68.8445L518.557 211.603C517.744 212.569 516.305 212.688 515.343 211.87L373.126 90.9254L343.738 92.4083Z" fill="white" fill-opacity="0.02"/>
</svg>
