<svg width="18" height="18" viewBox="0 0 18 18" fill="none" xmlns="http://www.w3.org/2000/svg">
<path fill-rule="evenodd" clip-rule="evenodd" d="M2.04849 0.351471C1.57986 -0.117157 0.820099 -0.117157 0.351471 0.351471C-0.117157 0.820099 -0.117157 1.57999 0.351471 2.04849L7.13968 8.8367L0.351471 15.6249C-0.117157 16.0935 -0.117157 16.8534 0.351471 17.3221C0.820099 17.7907 1.57986 17.7907 2.04849 17.3221L8.8367 10.5338L15.6249 17.3221C16.0935 17.7907 16.8534 17.7907 17.3221 17.3221C17.7907 16.8534 17.7907 16.0937 17.3221 15.625L10.5337 8.8367L17.3221 2.04849C17.7907 1.57986 17.7907 0.820099 17.3221 0.351471C16.8534 -0.117157 16.0935 -0.117157 15.625 0.351471L8.8367 7.13968L2.04849 0.351471Z" fill="white"/>
</svg>
