<svg width="26" height="26" viewBox="0 0 26 26" fill="none" xmlns="http://www.w3.org/2000/svg">
<path opacity="0.9" fill-rule="evenodd" clip-rule="evenodd" d="M9.93984 5.41846C7.03044 5.41846 4.69434 7.91316 4.69434 10.8161L4.69694 10.9851C4.69512 11.0167 4.69468 11.0483 4.69564 11.08C4.70344 11.47 4.79314 11.938 4.89064 12.3306C4.98684 12.7128 5.12204 13.1392 5.27284 13.4486C5.87994 14.7538 6.94204 16.0213 7.96514 17.0626C9.03524 18.1531 10.185 19.1625 11.4049 20.0825L11.4244 20.0981L11.44 20.1111C11.6662 20.3386 12.1459 20.8131 13 20.8131H13.0247C13.2665 20.8131 13.8437 20.8131 14.3611 20.31L14.404 20.2749C14.4469 20.2372 14.508 20.1878 14.586 20.1228L14.5899 20.1189C15.1567 19.6522 16.4827 18.5589 17.7905 17.2407C18.6277 16.4009 19.4961 15.4259 20.1591 14.4197C20.2491 14.2839 20.3357 14.1461 20.4191 14.0063C20.4512 13.9524 20.4786 13.8958 20.501 13.8373C20.5368 13.7389 20.5848 13.6454 20.644 13.5591C20.6821 13.4999 20.7143 13.4372 20.7402 13.3719C20.7779 13.277 20.8052 13.2146 20.826 13.1717L20.8299 13.1626C20.9178 13.0507 20.9827 12.9226 21.021 12.7856C21.1835 12.2084 21.294 11.7001 21.3057 11.0748C21.3061 11.0457 21.3052 11.0166 21.3031 10.9877C21.305 10.9183 21.3059 10.849 21.3057 10.7797C21.2862 7.89366 18.9566 5.41846 16.0602 5.41846C14.9617 5.41846 13.8931 5.75906 13.0494 6.44416C12.1492 5.77872 11.0593 5.41925 9.93984 5.41846ZM19.1386 10.8174V10.9513L19.136 11.0423C19.136 11.0527 19.136 11.0709 19.1386 11.093C19.1238 11.4105 19.071 11.7252 18.9813 12.0303C18.9449 12.0912 18.911 12.1536 18.8799 12.2175C18.8385 12.3028 18.7999 12.3895 18.7642 12.4775C18.6563 12.653 18.5861 12.7895 18.5133 12.9715C18.4611 13.0569 18.4073 13.1414 18.3521 13.225C17.7996 14.0622 17.043 14.9228 16.2552 15.7119L16.2526 15.7132C15.2839 16.6758 14.2678 17.5895 13.208 18.451L13.1664 18.4848L13.0104 18.6148L12.948 18.555C12.883 18.49 12.7933 18.4185 12.7504 18.3847L12.7426 18.3782C11.5977 17.5169 10.5192 16.5709 9.51604 15.5481L9.51214 15.5442C8.54104 14.5562 7.68174 13.4941 7.23324 12.5243C7.13085 12.2917 7.05034 12.0502 6.99274 11.8028C6.93003 11.567 6.88655 11.3266 6.86274 11.0839C6.86517 11.0388 6.86517 10.9937 6.86274 10.9487V10.9461C6.86171 10.9032 6.86127 10.8603 6.86144 10.8174C6.86144 9.03246 8.30444 7.58686 9.93984 7.58686C10.8004 7.58686 11.6142 7.93656 12.3422 8.69186C12.453 8.80698 12.5879 8.89616 12.7372 8.95301C12.8865 9.00986 13.0466 9.03296 13.2059 9.02066C13.3652 9.00835 13.5198 8.96096 13.6586 8.88186C13.7974 8.80276 13.917 8.69393 14.0088 8.56316C14.4378 7.95216 15.1684 7.58686 16.0602 7.58686C17.6956 7.58686 19.1386 9.03376 19.1386 10.8174Z" fill="white"/>
</svg>
