<svg width="26" height="26" viewBox="0 0 26 26" fill="none" xmlns="http://www.w3.org/2000/svg">
<path d="M13.3653 9.49001V10.53H14.4053V9.49001H13.3653ZM13.0884 9.49261L13.0598 10.5326H13.1053L13.0884 9.49261ZM3.90259 18.2494L4.94259 18.2806V18.2169L3.90259 18.2494ZM13.3653 16.5711H14.4053V15.7001L13.5499 15.5467L13.3653 16.5711ZM14.4053 7.87281C14.4053 7.58161 14.7563 7.43211 14.9669 7.63491L16.4047 6.13081C14.8707 4.66181 12.3253 5.74991 12.3253 7.87281H14.4053ZM14.4053 9.49001V7.87281H12.3253V9.49131L14.4053 9.49001ZM13.1053 10.5313L13.3653 10.53V8.45001C13.2665 8.45001 13.1677 8.45001 13.0689 8.45261L13.1053 10.5326V10.5313ZM7.03039 12.8635C9.11689 10.6275 12.1394 10.5079 13.0598 10.5326L13.1157 8.45261C12.0588 8.42531 8.23549 8.52281 5.50939 11.4465L7.03039 12.8635ZM4.94129 18.2182C4.92309 17.6462 5.06609 16.6985 5.42619 15.6663C5.78369 14.6393 6.32319 13.6214 7.03039 12.8635L5.50939 11.4465C4.54999 12.4735 3.88439 13.7722 3.46189 14.9812C3.04329 16.1824 2.83399 17.3901 2.86259 18.2832L4.94129 18.2182ZM3.81029 18.746C3.87721 18.6233 3.98477 18.529 4.11449 18.4769C4.21611 18.4362 4.32562 18.4191 4.43481 18.4267C4.544 18.4344 4.65004 18.4666 4.74499 18.5211C4.95039 18.6381 4.98809 18.7902 4.97639 18.7512C4.94126 18.5979 4.92942 18.4401 4.94129 18.2832L2.86129 18.2195C2.84829 18.655 2.88729 19.0502 2.99649 19.3895C3.10569 19.7275 3.31759 20.0993 3.71149 20.3255C4.12489 20.5634 4.56949 20.54 4.90879 20.3983C5.22859 20.267 5.48339 20.0265 5.63679 19.7431L3.81029 18.746ZM13.3653 16.5724L13.5486 15.548H13.546L13.5395 15.5467L13.5213 15.5428C13.4212 15.5249 13.3207 15.5102 13.2197 15.4986C12.063 15.3434 10.8924 15.3203 9.73049 15.4297C7.73889 15.6247 5.11679 16.3488 3.81029 18.746L5.63679 19.7431C6.42979 18.2871 8.12759 17.6761 9.93329 17.4993C11.013 17.3988 12.1009 17.4307 13.1729 17.5942H13.182L13.3653 16.5724ZM14.4053 18.0986V16.5711H12.3253V18.0986H14.4053ZM14.9578 18.3482C14.9099 18.391 14.8507 18.419 14.7872 18.4288C14.7237 18.4385 14.6588 18.4297 14.6003 18.4032C14.5418 18.3768 14.4922 18.3339 14.4576 18.2799C14.423 18.2258 14.4048 18.1628 14.4053 18.0986H12.3253C12.3253 20.1773 14.7771 21.2823 16.3345 19.9056L14.9578 18.3482ZM20.514 13.4381L14.9578 18.3482L16.3345 19.9056L21.8907 14.9968L20.514 13.4381ZM20.5231 12.9493C20.5564 12.981 20.5828 13.0193 20.6005 13.0617C20.6182 13.1041 20.627 13.1497 20.6261 13.1957C20.6252 13.2417 20.6148 13.287 20.5955 13.3287C20.5762 13.3704 20.5485 13.4077 20.514 13.4381L21.8907 14.9968C22.9476 14.0608 22.9814 12.4228 21.9609 11.4465L20.5231 12.948V12.9493ZM14.9669 7.63491L20.5231 12.9493L21.9609 11.4465L16.4047 6.13081L14.9669 7.63491Z" fill="white"/>
</svg>
