<svg width="24" height="24" viewBox="0 0 24 24" fill="none" xmlns="http://www.w3.org/2000/svg">
<path d="M0 4.79998C0 4.13726 0.537282 3.59998 1.2 3.59998H22.8C23.4627 3.59998 24 4.13726 24 4.79998C24 5.46269 23.4627 5.99998 22.8 5.99998H1.2C0.537282 5.99998 0 5.46265 0 4.79998ZM22.8 10.8H1.2C0.537282 10.8 5.10897e-07 11.3373 5.10897e-07 12C5.10897e-07 12.6627 0.537282 13.2 1.2 13.2H22.8C23.4627 13.2 24 12.6627 24 12C24 11.3373 23.4627 10.8 22.8 10.8ZM10.8 18H1.2C0.537329 18 0 18.5373 0 19.2C0 19.8626 0.537329 20.4 1.2 20.4H10.8C11.4627 20.4 12 19.8626 12 19.2C12 18.5373 11.4627 18 10.8 18Z" fill="white"/>
</svg>
