<svg width="26" height="27" viewBox="0 0 26 27" fill="none" xmlns="http://www.w3.org/2000/svg">
<path fill-rule="evenodd" clip-rule="evenodd" d="M4.3335 13.2234C4.3335 8.84966 8.36205 5.5556 13.0002 5.5556C17.6383 5.5556 21.6668 8.84966 21.6668 13.2234C21.6668 15.4161 20.5763 17.2166 18.9592 18.8048C18.8242 18.9377 18.6841 19.0677 18.5403 19.1948C17.1501 20.6984 15.7157 21.6626 14.3175 22.0642C13.7614 22.2238 13.0883 22.2389 12.5452 21.789C12.0541 21.3817 11.9407 20.806 11.9111 20.4724C11.9081 20.4397 11.9057 20.4069 11.9038 20.3742C7.87094 19.935 4.3335 17.3018 4.3335 13.2234ZM13.0002 7.72227C9.26122 7.72227 6.50016 10.3237 6.50016 13.2234C6.50016 16.0163 9.24027 18.2732 13.1099 18.2732H14.1933V19.5133L14.1499 19.662C14.1499 19.662 14.1283 19.7372 14.1066 19.8491C14.9408 19.5169 15.923 18.8423 16.9839 17.6853L17.0244 17.642L17.0699 17.6023C17.2013 17.4867 17.3248 17.3726 17.4411 17.2592C18.8321 15.892 19.5002 14.6144 19.5002 13.2234C19.5002 10.3237 16.7391 7.72227 13.0002 7.72227Z" fill="white"/>
</svg>
