<svg width="26" height="27" viewBox="0 0 26 27" fill="none" xmlns="http://www.w3.org/2000/svg">
<g opacity="0.9">
<path fill-rule="evenodd" clip-rule="evenodd" d="M7.9923 6.71791C9.2741 6.53721 10.4883 6.99091 11.5322 7.91781C11.6752 8.04521 11.7584 8.22721 11.7623 8.41831L11.7935 10.1928L13.5537 11.4928C13.6984 11.5998 13.7953 11.7594 13.8235 11.9371C13.8517 12.1149 13.809 12.2966 13.7045 12.4431L12.4058 14.2631L13.2794 16.1078C13.322 16.1897 13.3477 16.2794 13.3548 16.3715C13.362 16.4635 13.3505 16.5561 13.321 16.6436C13.2915 16.7311 13.2447 16.8118 13.1834 16.8808C13.122 16.9498 13.0473 17.0057 12.9638 17.0452C12.8804 17.0846 12.7898 17.1068 12.6975 17.1105C12.6052 17.1141 12.5132 17.0991 12.4268 17.0663C12.3405 17.0335 12.2617 16.9837 12.1951 16.9197C12.1285 16.8558 12.0755 16.779 12.0392 16.6941L10.9927 14.4854C10.9407 14.375 10.919 14.2527 10.93 14.1311C10.941 14.0096 10.9841 13.8931 11.0551 13.7938L12.1952 12.1948L10.7054 11.0963C10.6206 11.0336 10.5514 10.9522 10.5031 10.8584C10.4549 10.7646 10.4289 10.661 10.4272 10.5555L10.396 8.75631C9.6602 8.18171 8.914 7.97371 8.1834 8.07641C6.6663 8.28961 5.4339 10.0355 5.7225 12.0908L5.7433 12.2299L5.7472 12.252L5.7589 12.33L5.7615 12.3573C5.7992 12.5601 5.8876 12.8565 6.0033 13.1659C6.09694 13.4293 6.21307 13.6842 6.3504 13.9277C7.0992 15.2134 8.459 16.5368 9.7083 17.5872C10.4049 18.1724 11.1248 18.7292 11.8663 19.2564L11.9092 19.2863C12.0093 19.3591 12.1133 19.4332 12.1601 19.4735C12.216 19.5203 12.2511 19.5515 12.2849 19.5775C12.3083 19.5954 12.3336 19.6107 12.3603 19.623H12.3668C12.3867 19.6228 12.4065 19.6193 12.4253 19.6126C12.489 19.5827 12.5553 19.5606 12.6255 19.5515C12.6281 19.5515 12.6333 19.5476 12.6463 19.5385C12.6667 19.5241 12.6863 19.5085 12.7048 19.4917L12.8023 19.3981C12.8543 19.3461 12.9557 19.2642 13.0454 19.1927L13.0688 19.1745L13.1091 19.142C13.2209 19.0523 13.3613 18.9405 13.5251 18.8053C13.8969 18.5024 14.3883 18.0903 14.9226 17.6054C15.9886 16.6369 17.1859 15.411 17.9464 14.202C18.0205 14.0265 18.0842 13.9082 18.1934 13.7392C18.2311 13.656 18.2714 13.5689 18.313 13.4857C18.3416 13.4311 18.378 13.3648 18.4248 13.2959C18.5477 12.9337 18.6284 12.5586 18.6653 12.1779C18.6653 12.1519 18.6692 12.122 18.6705 12.1051L18.6731 12.0843L18.6835 11.9491C18.8239 9.93931 17.5109 8.33641 16.0354 8.23371C15.1969 8.17521 14.2336 8.55221 13.7682 9.19831C13.7171 9.27533 13.6511 9.34125 13.5739 9.39212C13.4968 9.44298 13.4102 9.47775 13.3193 9.49433C13.2284 9.51091 13.135 9.50897 13.0449 9.48862C12.9548 9.46827 12.8697 9.42993 12.7947 9.3759C12.7198 9.32187 12.6565 9.25326 12.6087 9.17419C12.5609 9.09511 12.5295 9.0072 12.5165 8.91571C12.5035 8.82423 12.5091 8.73107 12.533 8.6418C12.5568 8.55253 12.5985 8.469 12.6554 8.39621C13.4523 7.29121 14.9174 6.77901 16.1303 6.86481C18.5613 7.03381 20.2305 9.49471 20.0524 12.0453L20.0394 12.2091L20.0381 12.2234C20.0381 12.2455 20.0381 12.2663 20.0355 12.2884C19.9874 12.8422 19.8704 13.2894 19.6962 13.8263C19.6678 13.9133 19.6223 13.9938 19.5623 14.0629V14.0642C19.515 14.1532 19.4716 14.2443 19.4323 14.3372C19.4153 14.3754 19.3948 14.412 19.3712 14.4464C19.2973 14.5498 19.2366 14.6621 19.1905 14.7805C19.1763 14.8148 19.1593 14.8478 19.1398 14.8793C18.2792 16.2703 16.9506 17.6184 15.8456 18.622C15.2379 19.1729 14.6118 19.7032 13.9684 20.2119L13.9268 20.2457L13.7916 20.3549C13.7656 20.3757 13.7604 20.3809 13.7643 20.3757C13.7569 20.383 13.7495 20.3904 13.7422 20.3978C13.607 20.533 13.3418 20.7956 12.9297 20.8892C12.8185 20.9332 12.7024 20.9638 12.5839 20.9802C11.917 21.0738 11.4984 20.715 11.2904 20.5356L11.2683 20.5174L11.2397 20.4966C10.4081 19.9121 9.60224 19.2918 8.8243 18.6376C7.5542 17.569 6.0423 16.1234 5.1687 14.6258C4.98997 14.3133 4.83902 13.9858 4.7176 13.6469C4.57746 13.2861 4.47084 12.9132 4.3991 12.5328C4.39525 12.5091 4.39265 12.4853 4.3913 12.4613L4.39 12.4535C4.38064 12.3964 4.37197 12.3392 4.364 12.2819C4 9.68971 5.5262 7.06371 7.9923 6.71791Z" fill="white"/>
<path d="M12.6464 19.5385L12.6269 19.5515L12.6256 19.5502M12.6464 19.5385L12.6178 19.4982M12.6464 19.5385C12.6669 19.5237 12.6864 19.509 12.7049 19.4917L12.8024 19.3981C12.8544 19.3461 12.9558 19.2642 13.0455 19.1927M12.6256 19.5502L12.5554 19.4852L12.558 19.4826M12.6256 19.5502L12.5866 19.4631M12.6256 19.5502V19.5476L12.6178 19.4982M12.6256 19.5502L12.558 19.4826M12.558 19.4826L12.5606 19.48C12.568 19.4733 12.5763 19.4676 12.5853 19.4631M12.558 19.4826L12.5853 19.4631M12.6178 19.4982L12.5918 19.4592M12.6178 19.4982L13.0468 19.1927M12.5918 19.4592V19.4605H12.5892C12.5879 19.4614 12.5866 19.4623 12.5853 19.4631M12.5918 19.4592C12.5184 19.4711 12.447 19.4935 12.3799 19.5255C12.3263 19.4864 12.2743 19.4452 12.2239 19.402C12.1732 19.3578 12.0679 19.2824 11.9704 19.2122L11.9665 19.2096L11.9093 19.2876L11.9665 19.2083L11.9236 19.1784C11.1839 18.6525 10.4657 18.0969 9.7708 17.5131C8.5241 16.4653 7.1747 15.1497 6.435 13.8796M12.5918 19.4592C12.6404 19.4173 12.6876 19.374 12.7335 19.3292C12.7894 19.2759 12.8934 19.1914 12.9805 19.1212L12.9857 19.1173M13.0455 19.1927L12.9857 19.1173M13.0455 19.1927V19.194L12.9857 19.1173M12.9857 19.1173L13.0078 19.0991L13.0494 19.0653L13.4641 18.7299C13.9389 18.3434 14.4036 17.9446 14.8577 17.5339C15.9198 16.568 17.1067 15.3525 17.8594 14.1565C17.9348 13.9823 17.9998 13.8601 18.109 13.6924C18.1441 13.6105 18.1844 13.5234 18.226 13.4415C18.2546 13.3882 18.291 13.3219 18.3365 13.253C18.4639 12.8461 18.5341 12.5497 18.5666 12.2065L18.5679 12.174L18.5731 12.0973L18.5757 12.0765L18.5861 11.9426C18.7239 9.97182 17.4369 8.42872 16.029 8.32992C15.2178 8.27402 14.2896 8.64192 13.8476 9.25552C13.7886 9.34189 13.7129 9.41559 13.625 9.47225C13.537 9.52892 13.4386 9.56741 13.3356 9.58546C13.2326 9.60351 13.127 9.60076 13.025 9.57736C12.923 9.55396 12.8268 9.5104 12.7419 9.44922C12.6571 9.38805 12.5853 9.31052 12.5309 9.22118C12.4765 9.13185 12.4405 9.03252 12.425 8.92906C12.4096 8.8256 12.415 8.72009 12.441 8.61875C12.4669 8.51742 12.5129 8.42231 12.5762 8.33902C13.3965 7.20152 14.898 6.68022 16.1382 6.76602C18.6368 6.94152 20.3307 9.46352 20.15 12.0518L20.137 12.2182L20.1357 12.2273C20.1354 12.2503 20.1341 12.2733 20.1318 12.2962C20.0837 12.8604 19.9628 13.3154 19.7886 13.8562C19.7574 13.9533 19.7075 14.0434 19.6417 14.1214C19.598 14.2047 19.5576 14.2897 19.5208 14.3762C19.5021 14.4198 19.4794 14.4615 19.4532 14.501C19.3583 14.6427 19.3362 14.6869 19.2816 14.8182C19.2652 14.8574 19.2456 14.8952 19.2231 14.9313C18.3547 16.334 17.0183 17.6873 15.9107 18.6935C15.3517 19.2005 14.8382 19.6308 14.4547 19.9441C14.2857 20.0832 14.1401 20.1989 14.0296 20.2873L13.988 20.3211L13.8528 20.4303L13.8268 20.4511L13.8112 20.4667L13.8086 20.4693C13.6734 20.6045 13.3939 20.8814 12.9597 20.9828C12.8453 21.027 12.7244 21.0582 12.5983 21.0764C11.8859 21.1765 11.44 20.793 11.2281 20.611L11.2268 20.6097L11.2099 20.5941L11.206 20.5915L11.1826 20.5746C10.3493 19.9893 9.54165 19.3682 8.762 18.713C7.4906 17.6431 5.9683 16.1897 5.0856 14.6778C4.90377 14.36 4.75022 14.0267 4.6267 13.682C4.4838 13.3154 4.375 12.9363 4.3017 12.5497C4.2979 12.5247 4.29529 12.4996 4.2939 12.4743V12.4717L4.2679 12.2962C3.8974 9.66762 5.4457 6.97922 7.9794 6.62172C9.295 6.43712 10.5365 6.90512 11.5973 7.84632C11.7611 7.99192 11.8573 8.19862 11.8599 8.41832L11.8898 10.1447L13.6123 11.4161C13.7775 11.5384 13.8881 11.7207 13.9202 11.9238C13.9523 12.1268 13.9033 12.3343 13.7839 12.5016L12.519 14.2735L13.3679 16.0675C13.45 16.2544 13.4559 16.466 13.3844 16.6572C13.3129 16.8485 13.1696 17.0042 12.985 17.0914C12.8004 17.1787 12.5891 17.1904 12.396 17.1242C12.2029 17.058 12.0432 16.9191 11.9509 16.737L10.9057 14.5283C10.846 14.4022 10.8211 14.2625 10.8334 14.1236C10.8457 13.9846 10.8949 13.8515 10.9759 13.7379L12.0601 12.2182L10.6483 11.1756C10.5515 11.1042 10.4724 11.0115 10.4172 10.9047C10.362 10.7978 10.3321 10.6797 10.3298 10.5594L10.2986 8.80572C9.59401 8.26622 8.8855 8.07772 8.1965 8.17392C6.7457 8.37802 5.5354 10.0615 5.8188 12.0791L5.8396 12.2156L5.8435 12.2377C5.84942 12.2731 5.85419 12.3099 5.8578 12.3456C5.8942 12.5406 5.9813 12.8292 6.0944 13.1334C6.2179 13.4649 6.3453 13.7366 6.4233 13.8614L6.435 13.8796M6.435 13.8796L6.35051 13.929" stroke="white" stroke-width="0.195" stroke-linecap="round" stroke-linejoin="round"/>
</g>
</svg>
