<svg width="23" height="23" viewBox="0 0 23 23" fill="none" xmlns="http://www.w3.org/2000/svg">
<g clip-path="url(#clip0_119_1825)">
<path d="M11.5 0C5.14894 0 0 5.14894 0 11.5C0 17.8511 5.14894 23 11.5 23C17.8511 23 23 17.8511 23 11.5C23 5.14894 17.8511 0 11.5 0Z" fill="white"/>
<path d="M12.7581 10.4593L17.6811 4.73669H16.5145L12.2398 9.70556L8.8257 4.73669H4.88788L10.0507 12.2505L4.88788 18.2515H6.05454L10.5687 13.0042L14.1743 18.2515H18.1121L12.7578 10.4593H12.7581ZM6.4749 5.61495H8.26682L16.515 17.4132H14.7231L6.4749 5.61495Z" fill="black"/>
</g>
<defs>
<clipPath id="clip0_119_1825">
<rect width="23" height="23" fill="white"/>
</clipPath>
</defs>
</svg>
