<svg width="23" height="23" viewBox="0 0 23 23" fill="none" xmlns="http://www.w3.org/2000/svg">
<g clip-path="url(#clip0_119_1824)">
<path d="M9.90515 13.3552L13.0949 11.5046L9.90515 9.6449V13.3552Z" fill="white"/>
<path d="M11.5 0C9.22552 0 7.00211 0.674463 5.11095 1.9381C3.21978 3.20174 1.7458 4.99779 0.875391 7.09914C0.00498274 9.20049 -0.222756 11.5128 0.220974 13.7435C0.664705 15.9743 1.75997 18.0234 3.36828 19.6317C4.97658 21.24 7.02568 22.3353 9.25647 22.779C11.4872 23.2228 13.7995 22.995 15.9009 22.1246C18.0022 21.2542 19.7983 19.7802 21.0619 17.8891C22.3255 15.9979 23 13.7745 23 11.5C23 8.45001 21.7884 5.52494 19.6317 3.36827C17.4751 1.2116 14.55 0 11.5 0ZM17.5526 13.5352C17.5528 13.836 17.4938 14.1338 17.3788 14.4118C17.2638 14.6897 17.0952 14.9423 16.8826 15.155C16.67 15.3678 16.4176 15.5366 16.1397 15.6517C15.8618 15.7669 15.564 15.8261 15.2632 15.8261H7.73678C7.43601 15.8261 7.13818 15.7669 6.86031 15.6517C6.58245 15.5366 6.33 15.3678 6.11739 15.155C5.90478 14.9423 5.73617 14.6897 5.62121 14.4118C5.50625 14.1338 5.44718 13.836 5.44737 13.5352V9.4648C5.44718 9.16403 5.50625 8.86616 5.62121 8.58822C5.73617 8.31028 5.90478 8.05772 6.11739 7.84497C6.33 7.63222 6.58245 7.46345 6.86031 7.3483C7.13818 7.23315 7.43601 7.17388 7.73678 7.17388H15.2632C15.564 7.17388 15.8618 7.23315 16.1397 7.3483C16.4176 7.46345 16.67 7.63222 16.8826 7.84497C17.0952 8.05772 17.2638 8.31028 17.3788 8.58822C17.4938 8.86616 17.5528 9.16403 17.5526 9.4648V13.5352Z" fill="white"/>
</g>
<defs>
<clipPath id="clip0_119_1824">
<rect width="23" height="23" fill="white"/>
</clipPath>
</defs>
</svg>
