<svg width="23" height="23" viewBox="0 0 23 23" fill="none" xmlns="http://www.w3.org/2000/svg">
<g clip-path="url(#clip0_96_4)">
<path d="M10.2373 12.1317C10.2373 13.0553 9.57561 13.8068 8.74365 13.8068C7.92473 13.8068 7.25 13.0553 7.25 12.1317C7.25 11.2085 7.9117 10.4565 8.74365 10.4565C9.58189 10.4565 10.2503 11.2153 10.2373 12.1317Z" fill="white"/>
<path d="M15.7598 12.1317C15.7598 13.0553 15.1048 13.8068 14.2661 13.8068C13.4472 13.8068 12.7725 13.0553 12.7725 12.1317C12.7725 11.2085 13.4342 10.4565 14.2661 10.4565C15.1048 10.4565 15.7728 11.2153 15.7598 12.1317Z" fill="white"/>
<path d="M11.5 0C5.14894 0 0 5.14894 0 11.5C0 17.8511 5.14894 23 11.5 23C17.8511 23 23 17.8511 23 11.5C23 5.14894 17.8511 0 11.5 0ZM19.7167 15.7339C18.2953 16.7779 16.918 17.4117 15.56 17.8317C15.5385 17.8385 15.5151 17.8304 15.5016 17.812C15.1881 17.3753 14.9033 16.9149 14.6535 16.4315C14.6391 16.4032 14.6522 16.3691 14.6818 16.3579C15.1342 16.1867 15.5645 15.9823 15.9787 15.7406C16.0115 15.7213 16.0133 15.6746 15.9832 15.6521C15.8956 15.587 15.8085 15.5183 15.7254 15.4495C15.7096 15.437 15.6885 15.4343 15.671 15.4428C12.9829 16.6849 10.0382 16.6849 7.31822 15.4428C7.3007 15.4352 7.27959 15.4379 7.26477 15.4504C7.18166 15.5187 7.09451 15.587 7.00736 15.6521C6.97727 15.6746 6.97951 15.7213 7.0123 15.7406C7.42648 15.9778 7.85684 16.1867 8.30875 16.3583C8.3384 16.3695 8.35232 16.4032 8.3375 16.4315C8.09357 16.9158 7.80832 17.3758 7.48893 17.8124C7.475 17.8304 7.45209 17.8385 7.43053 17.8317C6.07883 17.4117 4.70197 16.7779 3.2802 15.7339C3.26852 15.7245 3.25998 15.7101 3.25863 15.6948C2.96934 12.5938 3.55961 9.45426 5.71406 6.23516C5.71945 6.22662 5.72709 6.21988 5.73652 6.21629C6.79623 5.72934 7.9323 5.37131 9.11914 5.16691C9.1407 5.16377 9.16227 5.17365 9.1735 5.19252C9.32039 5.45262 9.48795 5.78549 9.6016 6.05771C10.8527 5.8668 12.1235 5.8668 13.4011 6.05771C13.5143 5.79133 13.676 5.45262 13.822 5.19252C13.8332 5.17275 13.8548 5.16287 13.8764 5.16691C15.0641 5.37176 16.2002 5.73023 17.2594 6.21629C17.2689 6.21988 17.2765 6.22662 17.281 6.23605C19.1578 8.9965 20.085 12.1105 19.7382 15.6957C19.7369 15.711 19.7292 15.7245 19.7167 15.7339Z" fill="white"/>
</g>
<defs>
<clipPath id="clip0_96_4">
<rect width="23" height="23" fill="white"/>
</clipPath>
</defs>
</svg>
