<svg width="23" height="23" viewBox="0 0 23 23" fill="none" xmlns="http://www.w3.org/2000/svg">
<g clip-path="url(#clip0_68_358)">
<path d="M11.5 0C5.14894 0 0 5.14894 0 11.5C0 17.8511 5.14894 23 11.5 23C17.8511 23 23 17.8511 23 11.5C23 5.14894 17.8511 0 11.5 0Z" fill="white"/>
<path d="M12.7579 10.4592L17.6809 4.73657H16.5143L12.2397 9.70543L8.82551 4.73657H4.8877L10.0505 12.2504L4.8877 18.2514H6.05436L10.5685 13.0041L14.1741 18.2514H18.1119L12.7576 10.4592H12.7579ZM6.47471 5.61483H8.26663L16.5148 17.4131H14.7229L6.47471 5.61483Z" fill="black"/>
</g>
<defs>
<clipPath id="clip0_68_358">
<rect width="23" height="23" fill="white"/>
</clipPath>
</defs>
</svg>
